<mxfile host="py-mxgraph"><diagram id="ip-network###" name="ip-network"><mxGraphModel id="ip-network" name="ip-network"><root><mxCell id="0" vertex_type="Vertex.ETC" /><mxCell id="1" parent="0" vertex_type="Vertex.ETC" /><mxCell id="ip-network-0" parent="1" style="shape=ellipse;strokeWidth=3;whiteSpace=wrap;html=1;aspect=fixed;" value="VRF&#10;10" vertex="1" vertex_type="Vertex.ETC"><mxGeometry x="400.0" y="50.0" width="60.0" height="60.0" as="geometry" /></mxCell><mxCell id="ip-network-1" parent="1" style="shape=ellipse;strokeWidth=3;whiteSpace=wrap;html=1;aspect=fixed;" value="VRF&#10;20" vertex="1" vertex_type="Vertex.ETC"><mxGeometry x="500.0" y="400.0" width="60.0" height="60.0" as="geometry" /></mxCell><mxCell id="ip-network-2" parent="1" style="shape=ellipse;whiteSpace=wrap;html=1;aspect=fixed;" value="10.100.2.0 /24" vertex="1" vertex_type="Vertex.ETC"><mxGeometry x="100.0" y="200.0" width="180.0" height="50.0" as="geometry" /></mxCell><mxCell id="ip-network-3" parent="1" style="shape=ellipse;whiteSpace=wrap;html=1;aspect=fixed;" value="10.100.3.0 /24" vertex="1" vertex_type="Vertex.ETC"><mxGeometry x="600.0" y="200.0" width="180.0" height="50.0" as="geometry" /></mxCell><mxCell id="ip-network-4" parent="1" style="shape=ellipse;whiteSpace=wrap;html=1;aspect=fixed;" value="10.100.3.0 /24" vertex="1" vertex_type="Vertex.ETC"><mxGeometry x="100.0" y="600.0" width="180.0" height="50.0" as="geometry" /></mxCell><mxCell id="ip-network-5" parent="1" style="shape=ellipse;whiteSpace=wrap;html=1;aspect=fixed;" value="10.100.3.0 /24" vertex="1" vertex_type="Vertex.ETC"><mxGeometry x="400.0" y="600.0" width="180.0" height="50.0" as="geometry" /></mxCell><mxCell id="ip-network-6" parent="1" style="shape=ellipse;whiteSpace=wrap;html=1;aspect=fixed;" value="10.100.3.0 /24" vertex="1" vertex_type="Vertex.ETC"><mxGeometry x="700.0" y="600.0" width="180.0" height="50.0" as="geometry" /></mxCell><mxCell id="ip-network-7" parent="1" style="edgeStyle=none;endArrow=none;curved=1;orthogonalLoop=1;jettySize=auto;html=1;" source="ip-network-0" target="ip-network-2" vertex_type="Vertex.ETC" edge="1"><mxGeometry relative="1" as="geometry" /></mxCell><mxCell id="ip-network-7-edge_src_label" parent="ip-network-7" style="labelBackgroundColor=#ffffff;" value="100.1" vertex="1" vertex_type="Vertex.ETC"><mxGeometry x="-0.8" relative="1" as="geometry" /></mxCell><mxCell id="ip-network-8" parent="1" style="edgeStyle=none;endArrow=none;curved=1;orthogonalLoop=1;jettySize=auto;html=1;" source="ip-network-0" target="ip-network-3" vertex_type="Vertex.ETC" edge="1"><mxGeometry relative="1" as="geometry" /></mxCell><mxCell id="ip-network-8-edge_src_label" parent="ip-network-8" style="labelBackgroundColor=#ffffff;" value="200.1" vertex="1" vertex_type="Vertex.ETC"><mxGeometry x="-0.8" relative="1" as="geometry" /></mxCell><mxCell id="ip-network-9" parent="1" style="edgeStyle=none;endArrow=none;curved=1;orthogonalLoop=1;jettySize=auto;html=1;" source="ip-network-1" target="ip-network-3" vertex_type="Vertex.ETC" edge="1"><mxGeometry relative="1" as="geometry" /></mxCell><mxCell id="ip-network-9-edge_src_label" parent="ip-network-9" style="labelBackgroundColor=#ffffff;" value="200.254" vertex="1" vertex_type="Vertex.ETC"><mxGeometry x="-0.8" relative="1" as="geometry" /></mxCell><mxCell id="ip-network-10" parent="1" style="edgeStyle=none;endArrow=none;curved=1;orthogonalLoop=1;jettySize=auto;html=1;" source="ip-network-1" target="ip-network-4" vertex_type="Vertex.ETC" edge="1"><mxGeometry relative="1" as="geometry" /></mxCell><mxCell id="ip-network-10-edge_src_label" parent="ip-network-10" style="labelBackgroundColor=#ffffff;" value="300.1" vertex="1" vertex_type="Vertex.ETC"><mxGeometry x="-0.8" relative="1" as="geometry" /></mxCell><mxCell id="ip-network-11" parent="1" style="edgeStyle=none;endArrow=none;curved=1;orthogonalLoop=1;jettySize=auto;html=1;" source="ip-network-1" target="ip-network-5" vertex_type="Vertex.ETC" edge="1"><mxGeometry relative="1" as="geometry" /></mxCell><mxCell id="ip-network-11-edge_src_label" parent="ip-network-11" style="labelBackgroundColor=#ffffff;" value="400.1" vertex="1" vertex_type="Vertex.ETC"><mxGeometry x="-0.8" relative="1" as="geometry" /></mxCell><mxCell id="ip-network-12" parent="1" style="edgeStyle=none;endArrow=none;curved=1;orthogonalLoop=1;jettySize=auto;html=1;" source="ip-network-1" target="ip-network-6" vertex_type="Vertex.ETC" edge="1"><mxGeometry relative="1" as="geometry" /></mxCell><mxCell id="ip-network-12-edge_src_label" parent="ip-network-12" style="labelBackgroundColor=#ffffff;" value="500.1" vertex="1" vertex_type="Vertex.ETC"><mxGeometry x="-0.8" relative="1" as="geometry" /></mxCell></root></mxGraphModel></diagram></mxfile>